PathFileType	4	(X/Y/Z)	/Users/itak/Documents/Research/Walk-IL/dataset/trc/00260_00009.trc
DataRate	CameraRate	NumFrames	NumMarkers	Units	OrigDataRate	OrigDataStartFrame	OrigNumFrames
100.000000	100.000000	4	53	mm	100.000000	308	493
Frame#	Time	RPSI			LPSI			L3			STRN			T10			C7			CLAV			RBAK			LBAK			LSHO			LUPA			LAEL			LAOL			LWTS			LWPS			LFRA			LIFD			LHPS			LHTS			RSHO			RUPA			RAEL			RAOL			RWTS			RWPS			RFRA			RIFD			RHTS			RHPS			RBHD			LFHD			RFHD			LBHD			LHIP			RHIP			RASI			LASI			LKNE			LTHI			LANK			LTIP			LTOE			LMT1			LMT5			LHEE			RKNE			RTHI			RTIP			RTOE			RMT1			RMT5			RHEE			RANK			
		X1	Y1	Z1	X2	Y2	Z2	X3	Y3	Z3	X4	Y4	Z4	X5	Y5	Z5	X6	Y6	Z6	X7	Y7	Z7	X8	Y8	Z8	X9	Y9	Z9	X10	Y10	Z10	X11	Y11	Z11	X12	Y12	Z12	X13	Y13	Z13	X14	Y14	Z14	X15	Y15	Z15	X16	Y16	Z16	X17	Y17	Z17	X18	Y18	Z18	X19	Y19	Z19	X20	Y20	Z20	X21	Y21	Z21	X22	Y22	Z22	X23	Y23	Z23	X24	Y24	Z24	X25	Y25	Z25	X26	Y26	Z26	X27	Y27	Z27	X28	Y28	Z28	X29	Y29	Z29	X30	Y30	Z30	X31	Y31	Z31	X32	Y32	Z32	X33	Y33	Z33	X34	Y34	Z34	X35	Y35	Z35	X36	Y36	Z36	X37	Y37	Z37	X38	Y38	Z38	X39	Y39	Z39	X40	Y40	Z40	X41	Y41	Z41	X42	Y42	Z42	X43	Y43	Z43	X44	Y44	Z44	X45	Y45	Z45	X46	Y46	Z46	X47	Y47	Z47	X48	Y48	Z48	X49	Y49	Z49	X50	Y50	Z50	X51	Y51	Z51	X52	Y52	Z52	X53	Y53	Z53	

309	3.08	3.602375507354736	1033.79052734375	-237.2112121582031	-115.2154541015625	1039.47216796875	-255.2291717529297	-76.86399841308594	1119.086669921875	-240.6253967285156	-37.06914520263672	1316.456909179688	-488.6920776367188	-74.01189422607422	1246.938842773438	-238.0462951660156	-70.84651947021484	1509.45166015625	-292.4896240234375	-39.86026000976562	1432.955200195312	-458.5006103515625	-11.40619945526123	1367.254516601562	-211.6484375	-183.4454956054688	1471.041259765625	-292.3882446289062	-221.4228668212891	1475.4560546875	-390.1525573730469	-303.1181030273438	1357.583862304688	-389.6209106445312	-324.7636108398438	1153.795654296875	-444.58642578125	-289.7183532714844	1121.032958984375	-370.3320007324219	-235.3280181884766	958.5858154296875	-585.8233032226562	-318.6291809082031	932.214111328125	-579.1542358398438	-328.0334777832031	1055.892333984375	-495.064208984375	-227.2654266357422	775.7433471679688	-641.166259765625	-304.7783813476562	853.4310913085938	-620.6692504882812	-245.4520263671875	872.3623657226562	-650.3792114257812	105.2839050292969	1473.64111328125	-321.3637390136719	166.4065399169922	1407.04248046875	-294.3354187011719	214.5918426513672	1128.0986328125	-286.3789978027344	121.1884460449219	1116.8798828125	-271.485595703125	199.6347961425781	936.9449462890625	-458.769775390625	254.9561157226562	913.5845947265625	-399.8663940429688	233.6815338134766	1063.552124023438	-320.1510009765625	193.8231201171875	752.6595458984375	-503.7609252929688	223.417236328125	825.2254028320312	-516.205078125	264.8731384277344	814.9597778320312	-457.5550842285156	-11.72348690032959	1666.309936523438	-316.9692993164062	-78.19353485107422	1724.774780273438	-526.3307495117188	21.06392097473145	1723.150268554688	-512.1347045898438	-137.2042999267578	1677.70703125	-379.9925231933594	-237.2879180908203	981.89794921875	-377.7943725585938	123.6920928955078	1001.696105957031	-321.2645874023438	105.2084045410156	1052.761962890625	-421.1151733398438	-177.4687194824219	1029.701538085938	-467.581298828125	-155.1896057128906	505.4556579589844	-466.908935546875	-192.3594207763672	646.34130859375	-447.8562927246094	-109.8841247558594	32.21907043457031	-397.2124938964844	-141.3844757080078	275.0970458984375	-430.9698181152344	-39.54549026489258	39.85604858398438	-610.5167846679688	-0.8286013007164001	35.94826889038086	-537.8790283203125	-118.3174591064453	34.80319213867188	-525.8299560546875	-60.22417449951172	37.83885955810547	-332.8924865722656	126.9890213012695	522.9254760742188	-460.195068359375	146.1455993652344	787.881591796875	-413.8459777832031	115.7189559936523	405.9145812988281	-438.6621704101562	95.09701538085938	62.00386428833008	-441.7302551269531	39.58768844604492	61.27508926391602	-399.0975341796875	137.8290252685547	57.70659255981445	-331.4884338378906	19.63344383239746	95.82227325439453	-188.5604858398438	89.54341125488281	80.43603515625	-234.5472259521484	
310	3.09	4.237915992736816	1033.809936523438	-240.03076171875	-114.5664596557617	1039.474731445312	-257.7211608886719	-76.34328460693359	1119.266357421875	-243.0558776855469	-37.08935928344727	1316.668701171875	-491.2457580566406	-73.69813537597656	1247.085083007812	-240.5240936279297	-70.9051513671875	1509.58154296875	-294.96484375	-39.95930480957031	1433.152709960938	-460.9983520507812	-11.30543804168701	1367.421142578125	-214.1744689941406	-183.4969635009766	1471.1005859375	-294.8407592773438	-221.4979400634766	1475.496337890625	-392.6205749511719	-303.10986328125	1357.584716796875	-392.1935729980469	-324.5665283203125	1153.820068359375	-447.3573608398438	-289.6858215332031	1121.027221679688	-373.0571899414062	-234.6375427246094	958.84228515625	-588.5633544921875	-317.9151916503906	932.359619140625	-582.1344604492188	-327.6577758789062	1055.948608398438	-497.9271850585938	-226.1892242431641	776.1719360351562	-644.2691040039062	-303.9766540527344	853.6993408203125	-623.794189453125	-244.5240325927734	872.7599487304688	-653.340576171875	105.2439346313477	1473.896118164062	-323.9559020996094	166.4335021972656	1407.31591796875	-296.99560546875	214.8206634521484	1128.41064453125	-289.2377319335938	121.4125137329102	1117.131469726562	-274.2625732421875	199.8054656982422	937.0805053710938	-461.4522399902344	255.2420806884766	913.8575439453125	-402.6070556640625	233.9156341552734	1063.864990234375	-322.9897155761719	194.0535278320312	752.7518920898438	-506.174560546875	223.6123657226562	825.3323974609375	-518.7986450195312	265.1689758300781	815.158447265625	-460.1787109375	-11.95935440063477	1666.48193359375	-319.4190368652344	-78.34921264648438	1724.970092773438	-528.7901611328125	20.90088272094727	1723.379516601562	-514.5584106445312	-137.4128570556641	1677.843872070312	-382.4930419921875	-236.9986114501953	982.032958984375	-380.091552734375	124.2189254760742	1001.97802734375	-324.3857116699219	105.5810470581055	1053.174560546875	-424.1714477539062	-177.2746276855469	1029.831176757812	-469.9368286132812	-155.2125244140625	505.3597717285156	-467.9207763671875	-192.2079925537109	646.3591918945312	-449.3916320800781	-109.9236068725586	32.26118469238281	-397.2232666015625	-141.3956604003906	275.0651550292969	-431.404541015625	-39.58353042602539	39.84553527832031	-610.5521850585938	-0.8325313925743103	35.98259353637695	-537.8968505859375	-118.3613967895508	34.75496292114258	-525.817626953125	-60.20270156860352	37.88285446166992	-332.8909912109375	127.4655685424805	523.5507202148438	-464.4005737304688	146.8636169433594	788.38232421875	-417.2361450195312	116.7501449584961	406.0737915039062	-444.6074523925781	97.01879119873047	62.83451843261719	-455.3883666992188	41.8581657409668	60.89999389648438	-412.3980712890625	140.5713348388672	55.99678421020508	-345.5073852539062	23.26011848449707	90.16229248046875	-200.7714996337891	92.87904357910156	76.15103912353516	-247.6473693847656	
311	3.1	4.925065994262695	1033.816162109375	-242.8362579345703	-113.8740692138672	1039.447631835938	-260.1782531738281	-75.76463317871094	1119.41845703125	-245.4634094238281	-37.12521362304688	1316.883056640625	-493.712158203125	-73.31153106689453	1247.199829101562	-242.9176177978516	-70.93055725097656	1509.6884765625	-297.3252258300781	-40.06881332397461	1433.349609375	-463.3969421386719	-11.14787864685059	1367.56298828125	-216.6166687011719	-183.5127258300781	1471.131713867188	-297.1365356445312	-221.5799255371094	1475.51416015625	-394.9117431640625	-303.0927429199219	1357.552978515625	-394.5474243164062	-324.3850708007812	1153.812255859375	-449.90966796875	-289.6322937011719	1121.0048828125	-375.5727844238281	-234.0317840576172	959.0184326171875	-591.0801391601562	-317.2869567871094	932.4431762695312	-584.8529052734375	-327.3156433105469	1055.962890625	-500.5534362792969	-225.2441253662109	776.496337890625	-647.06494140625	-303.2778625488281	853.8822631835938	-626.6273193359375	-243.7066192626953	873.0532836914062	-656.0320434570312	105.2352523803711	1474.138793945312	-326.4811401367188	166.4938049316406	1407.571655273438	-299.6026916503906	215.0384216308594	1128.701416015625	-292.0335388183594	121.6315002441406	1117.373779296875	-276.9847106933594	200.0040130615234	937.1273193359375	-463.9959106445312	255.5358581542969	914.0677490234375	-405.1852111816406	234.14208984375	1064.1494140625	-325.7373962402344	194.3155517578125	752.7282104492188	-508.3663330078125	223.8458862304688	825.3125610351562	-521.1870727539062	265.4935913085938	815.26953125	-462.5924072265625	-12.19502830505371	1666.653442382812	-321.76904296875	-78.51548004150391	1725.142578125	-531.1539916992188	20.73131370544434	1723.592529296875	-516.8880615234375	-137.6254577636719	1677.971923828125	-384.8917846679688	-236.7231750488281	982.1619873046875	-382.3250732421875	124.7766723632812	1002.259765625	-327.5263366699219	105.9846115112305	1053.5869140625	-427.2471618652344	-177.0943908691406	1029.954833984375	-472.2286987304688	-155.195556640625	505.2663879394531	-469.0036926269531	-192.0371551513672	646.36865234375	-450.9633178710938	-109.9519958496094	32.30231475830078	-397.2339172363281	-141.3923187255859	275.0353698730469	-431.88818359375	-39.62312316894531	39.83646774291992	-610.5895385742188	-0.8319522142410278	36.01160049438477	-537.9151611328125	-118.40234375	34.71115875244141	-525.8062744140625	-60.18412017822266	37.9343376159668	-332.8985290527344	127.9115982055664	524.0895385742188	-468.3516235351562	147.5685729980469	788.85400390625	-420.61181640625	117.697151184082	406.1823120117188	-450.2299499511719	98.69452667236328	63.65051651000977	-468.3587951660156	43.87979888916016	60.61034393310547	-425.0470581054688	143.0487213134766	54.49955749511719	-358.8830261230469	26.64163970947266	84.89536285400391	-212.5018463134766	95.95822906494141	72.20809936523438	-260.2019653320312	
312	3.11	5.665814876556396	1033.816650390625	-245.6281890869141	-113.1397476196289	1039.395141601562	-262.6056213378906	-75.12931823730469	1119.542602539062	-247.8528594970703	-37.17953109741211	1317.102783203125	-496.0926818847656	-72.85605621337891	1247.28564453125	-245.2347564697266	-70.91954803466797	1509.775756835938	-299.57275390625	-40.19045257568359	1433.548706054688	-465.6990356445312	-10.92831230163574	1367.68115234375	-218.9785919189453	-183.4889221191406	1471.137329101562	-299.2738342285156	-221.6649169921875	1475.515625	-397.0212097167969	-303.0643310546875	1357.493041992188	-396.6782531738281	-324.2171630859375	1153.775024414062	-452.2407531738281	-289.5429382324219	1120.969848632812	-377.8781433105469	-233.5151672363281	959.1159057617188	-593.3759765625	-316.7496337890625	932.46826171875	-587.3058471679688	-327.0006103515625	1055.939453125	-502.9405517578125	-224.4451446533203	776.7117309570312	-649.5507202148438	-302.6827392578125	853.9785766601562	-629.1610107421875	-243.0108642578125	873.2408447265625	-658.4519653320312	105.2608413696289	1474.371826171875	-328.94482421875	166.5898895263672	1407.81298828125	-302.1631164550781	215.2483367919922	1128.97412109375	-294.7679748535156	121.8532943725586	1117.6103515625	-279.64990234375	200.2311096191406	937.0903930664062	-466.4030151367188	255.8391418457031	914.2181396484375	-407.6043701171875	234.3638610839844	1064.409057617188	-328.3967895507812	194.611328125	752.5958251953125	-510.3387451171875	224.1163482666016	825.174560546875	-523.3775024414062	265.8455200195312	815.2975463867188	-464.8017578125	-12.42578792572021	1666.825927734375	-324.0208129882812	-78.69078826904297	1725.294067382812	-533.4234619140625	20.55572319030762	1723.790161132812	-519.1255493164062	-137.8392791748047	1678.093627929688	-387.188720703125	-236.4713439941406	982.28173828125	-384.4953918457031	125.3661270141602	1002.547790527344	-330.6872253417969	106.4198837280273	1054.005493164062	-430.3431701660156	-176.9377746582031	1030.069213867188	-474.4573669433594	-155.1385040283203	505.1745300292969	-470.1506958007812	-191.8424987792969	646.3678588867188	-452.56396484375	-109.9660949707031	32.34076309204102	-397.243896484375	-141.3833160400391	275.0106811523438	-432.4203491210938	-39.66439056396484	39.82856369018555	-610.628662109375	-0.8262477517127991	36.03500747680664	-537.9337768554688	-118.4401931762695	34.67206192016602	-525.7960205078125	-60.1689453125	37.99318313598633	-332.9149169921875	128.3305969238281	524.5450439453125	-472.0613098144531	148.2503662109375	789.3007202148438	-423.9795227050781	118.5530853271484	406.2363586425781	-455.5408020019531	100.0791931152344	64.45301818847656	-480.6174621582031	45.61081695556641	60.39893341064453	-437.0035095214844	145.2303619384766	53.19603729248047	-371.593017578125	29.77838516235352	80.02412414550781	-223.6947631835938	98.77072143554688	68.59693145751953	-272.1735229492188	
